<svg xmlns="http://www.w3.org/2000/svg" width="1024" height="1024" viewBox="-34.26 -48.236 1024 1024" id="bank"><path d="M897.74 274.264H57.74l14 14v-55l-6.934 12.088 82.247-41.216 169.875-85.128 142.203-71.261 24.733-12.395h-14.132l82.204 41.01 170.054 84.836 143.067 71.373 25.617 12.78-6.934-12.088v55c0 7.632 6.368 14 14 14s14-6.368 14-14v-55c0-4.677-2.605-9.929-6.934-12.088l-82.204-41.01-170.054-84.836-143.067-71.373-25.527-12.735c-6.944-3.464-12.22-1.049-18.127 1.912l-14.891 7.462-135.948 68.127-171.69 86.038-92.134 46.17-.49.246c-4.327 2.168-6.934 7.404-6.934 12.088v55c0 7.632 6.368 14 14 14h839.999c7.632 0 14-6.368 14-14s-6.367-14-13.999-14zm16.5 616H41.238l14 14v-85.315l-14 14h873.001l-14-14v85.315c0 7.632 6.368 14 14 14s14-6.368 14-14v-85.315c0-7.632-6.368-14-14-14H41.237c-7.632 0-14 6.368-14 14v85.315c0 7.632 6.368 14 14 14h873.001c7.632 0 14-6.368 14-14s-6.366-14-13.998-14zm-706.5-147h-108l14 14 2.542-102.676 4.763-192.418a3945521.493 3945521.493 0 0 1 2.696-108.906l-14 14h88l-14-14 2.542 102.676 4.763 192.418 2.692 108.745.004.16c.189 7.628 6.226 14 14 14 7.489 0 14.189-6.368 14-14L219.2 654.587l-4.763-192.418a3945521.493 3945521.493 0 0 0-2.696-108.906c-.189-7.627-6.226-14-14-14h-88c-7.774 0-13.811 6.373-14 14l-2.542 102.676-4.763 192.418-2.692 108.745a8.542 8.542 0 0 1-.004.16c-.189 7.632 6.511 14 14 14h108c7.632 0 14-6.368 14-14s-6.368-13.998-14-13.998zm648 0h-108l14 14 2.541-102.676 4.764-192.418c.896-36.249 1.794-72.497 2.691-108.746l.004-.16-14 14h88l-14-14 2.541 102.676 4.764 192.418 2.691 108.745.004.16c.188 7.628 6.226 14 14 14 7.488 0 14.188-6.368 14-14l-2.541-102.676-4.764-192.418c-.896-36.249-1.794-72.497-2.691-108.746l-.004-.16c-.188-7.627-6.226-14-14-14h-88c-7.774 0-13.812 6.373-14 14l-2.541 102.676-4.764 192.418-2.691 108.745-.004.16c-.188 7.632 6.512 14 14 14h108c7.632 0 14-6.368 14-14s-6.368-13.998-14-13.998z"></path><path d="M510.988 173.122a71.753 71.753 0 0 1-.18 4.148c-.317 4.375.527-2.607-.28 1.652-.496 2.617-1.325 5.159-2.257 7.649 1.007-2.692-.646 1.194-.767 1.429-.591 1.164-1.276 2.275-1.961 3.384-.12.194-2.598 3.648-.835 1.389-1.063 1.363-2.255 2.621-3.459 3.858-.904.929-1.882 1.782-2.858 2.634-3.145 2.743 2.129-1.439-1.301.947-2.146 1.492-4.466 2.712-6.823 3.828 2.606-1.233-1.322.421-1.566.504-1.262.432-2.557.755-3.849 1.078-.248.062-4.578.819-1.602.43-1.827.239-3.671.292-5.51.318-1.385.02-2.769-.08-4.149-.18-4.375-.317 2.607.528-1.651-.28-2.618-.497-5.159-1.326-7.649-2.257 2.692 1.007-1.194-.647-1.429-.767-1.164-.591-2.275-1.277-3.384-1.961-.194-.12-3.648-2.598-1.389-.835-1.363-1.064-2.621-2.254-3.858-3.459-.929-.904-1.782-1.882-2.633-2.858-2.743-3.145 1.439 2.128-.947-1.301-1.493-2.146-2.712-4.466-3.828-6.823 1.233 2.606-.421-1.323-.504-1.567-.432-1.262-.755-2.557-1.078-3.849-.062-.247-.819-4.578-.43-1.602-.239-1.826-.292-3.671-.318-5.51-.02-1.385.08-2.769.18-4.149.317-4.375-.528 2.607.28-1.651.497-2.618 1.325-5.159 2.257-7.649-1.007 2.692.647-1.194.767-1.429.59-1.164 1.277-2.275 1.961-3.384.12-.194 2.598-3.648.835-1.389 1.063-1.363 2.254-2.621 3.458-3.858.904-.929 1.882-1.782 2.858-2.633 3.145-2.743-2.129 1.439 1.301-.947 2.146-1.493 4.466-2.712 6.823-3.828-2.606 1.233 1.323-.421 1.567-.504 1.261-.432 2.556-.755 3.849-1.078.247-.062 4.578-.819 1.602-.43 1.827-.239 3.671-.292 5.51-.318 1.385-.02 2.768.08 4.149.18 4.375.317-2.607-.528 1.651.28 2.617.497 5.159 1.325 7.648 2.257-2.691-1.007 1.194.647 1.43.767 1.163.59 2.274 1.276 3.384 1.961.194.12 3.648 2.598 1.389.835 1.363 1.063 2.621 2.254 3.858 3.458.929.904 1.782 1.882 2.634 2.858 2.743 3.145-1.439-2.129.946 1.301 1.493 2.146 2.712 4.466 3.828 6.823-1.233-2.606.421 1.323.504 1.567.433 1.261.756 2.556 1.078 3.849.063.247.819 4.578.43 1.602.239 1.826.292 3.671.318 5.51.11 7.63 6.285 14 14 14 7.548 0 14.11-6.368 14-14-.39-26.945-17.506-49.748-42.844-58.422-25.797-8.831-53.341 2.728-68.929 23.873-16.012 21.719-13.097 52.402 2.959 72.978 15.759 20.195 44.523 28.058 68.458 19.103 24.132-9.029 39.983-31.795 40.355-57.53.11-7.632-6.452-14-14-14-7.714-.002-13.888 6.368-13.999 13.998zm53.61 292.193c-.027 4.86-.361 9.69-.947 14.515.402-3.318-.158.839-.225 1.252-.201 1.257-.437 2.509-.672 3.761-.56 2.971-1.251 5.914-1.988 8.845-1.298 5.152-2.921 10.22-4.713 15.22-2.354 6.565-2.962 7.813-6.023 14.096-2.383 4.891-5.051 9.639-7.889 14.278-1.41 2.305-2.904 4.558-4.428 6.789-.757 1.109-1.543 2.199-2.328 3.288-.524.722-1.055 1.438-1.593 2.149.839-1.068.752-.961-.26.321-3.248 4.107-6.773 7.99-10.477 11.69-1.808 1.807-3.699 3.526-5.619 5.211-.947.831-1.923 1.63-2.898 2.428-1.265 1.004-1.306 1.041-.121.112-.661.496-1.327.983-2 1.462-3.936 2.84-8.131 5.302-12.476 7.457-.402.199-4.025 1.817-.981.533-1.084.458-2.189.863-3.294 1.269-2.56.938-5.191 1.662-7.842 2.289-1.132.268-2.277.475-3.422.682-3.843.693 2.995-.294-.894.115-2.333.245-4.681.291-7.024.268-1.171-.011-2.341-.09-3.509-.168-.567-.038-4.442-.534-.909-.029-2.69-.384-5.339-1.014-7.957-1.73-2.261-.619-4.47-1.411-6.656-2.253-3.666-1.411 2.587 1.185-1-.462-1.085-.498-2.146-1.045-3.207-1.591-2.15-1.106-4.225-2.353-6.272-3.636-1.039-.65-2.05-1.343-3.062-2.034-.424-.29-4.488-3.322-2.152-1.502-4.02-3.132-7.751-6.62-11.315-10.257-1.829-1.865-3.57-3.813-5.284-5.784-.867-.996-1.704-2.017-2.542-3.037-.559-.687-1.11-1.378-1.656-2.074.833 1.075.755.959-.236-.35-6.764-9.043-12.413-18.901-17.197-29.117-.576-1.23-1.123-2.475-1.67-3.718 1.125 2.556-.622-1.527-.674-1.656-1.007-2.497-1.927-5.028-2.815-7.569-1.889-5.402-3.437-10.919-4.74-16.489-.585-2.502-1.074-5.025-1.526-7.555-.223-1.244-.411-2.494-.599-3.744.494 3.284-.077-.795-.125-1.224-.601-5.395-.759-10.824-.575-16.245.094-2.761.356-5.514.675-8.257-.345 2.968.275-1.453.313-1.673.229-1.334.511-2.659.794-3.982 1.208-5.662 3.019-11.182 5.184-16.544-1.083 2.682.636-1.294.726-1.485.556-1.193 1.159-2.363 1.761-3.533 1.201-2.332 2.538-4.591 3.917-6.822 1.375-2.223 2.877-4.365 4.419-6.474 2.524-3.453-1.673 2.039 1.023-1.276 1.097-1.348 2.253-2.646 3.417-3.936 3.493-3.871 7.351-7.397 11.393-10.684-2.211 1.798 1.149-.847 1.319-.971a100.329 100.329 0 0 1 3.223-2.23c2.536-1.708 5.18-3.249 7.86-4.718 8.29-4.547 17.859-7.705 29.392-9.522-2.96.466 1.503-.147 1.719-.169 1.376-.141 2.756-.226 4.137-.31 2.792-.171 5.591-.171 8.386-.114 2.771.057 5.533.282 8.288.564 4.468.458-2.717-.454 1.695.241 1.785.281 3.556.646 5.322 1.023 5.23 1.116 10.337 2.754 15.317 4.688 4.043 1.57-2.427-1.113 1.518.664 1.201.541 2.381 1.129 3.56 1.716 2.349 1.171 4.627 2.479 6.877 3.83 2.242 1.346 4.403 2.822 6.534 4.337.168.12 3.556 2.743 1.318.971 1.022.809 2.013 1.658 3.002 2.505 4.289 3.675 8.191 7.782 11.808 12.114 2.738 3.281-1.545-2.143 1.023 1.276.784 1.044 1.527 2.119 2.271 3.192 1.49 2.153 2.854 4.391 4.172 6.651 1.323 2.271 2.513 4.619 3.655 6.985.09.187 1.845 4.155.726 1.485.512 1.223.976 2.465 1.439 3.707 1.876 5.026 3.242 10.229 4.29 15.486.267 1.333.478 2.677.689 4.02-.467-2.96.146 1.503.169 1.718.33 3.229.438 6.477.461 9.721.052 7.631 6.329 14 14 14 7.593 0 14.052-6.368 14-14-.338-49.6-32.318-93.161-79.059-109.204-22.861-7.847-48.88-7.514-71.758 0-23.313 7.657-42.725 22.614-57.364 42.106-14.341 19.095-21.535 43.366-21.696 67.098-.158 23.166 6.655 45.96 16.065 66.901 17.715 39.423 54.433 80.443 101.224 79.095 34.419-.992 62.184-25.264 81.112-52.004 19.01-26.855 31.288-60.941 31.476-93.992.043-7.632-6.401-14-14-14-7.664 0-13.957 6.369-14 14zm101.468 272.598v81.036l14-14H275.414l14 14v-74.081c0-15.767.844-26.354 6.888-41.735-1.052 2.679.595-1.326.682-1.518.545-1.201 1.136-2.381 1.726-3.561 1.177-2.351 2.488-4.632 3.84-6.886 1.348-2.246 2.822-4.413 4.335-6.55.115-.163 2.725-3.574.964-1.335 1.076-1.368 2.212-2.688 3.354-4.001 7.984-9.165 13.55-13.487 23.364-19.209 3.417-1.992 6.981-3.72 10.601-5.307-2.484 1.089 2.371-.848 2.832-1.015 2.093-.761 4.224-1.412 6.361-2.035 3.895-1.136 7.872-1.962 11.871-2.631 1.685-.251 1.799-.274.343-.069 1.368-.173 2.741-.292 4.114-.411 2.313-.199 4.636-.276 6.957-.322 8.535-.171 17.086-.01 25.622-.01-3.3-1.367-6.6-2.733-9.899-4.101l74.779 93.291c4.406 5.497 15.401 5.533 19.799 0l74.165-93.291c-3.3 1.367-6.6 2.733-9.899 4.101 8.54 0 17.082-.047 25.622.01 1.86.012 3.719.11 5.575.222.921.062 1.84.135 2.759.22.203.018 4.697.57 1.731.154 4.469.626 8.876 1.633 13.221 2.838 1.718.477 3.413 1.031 5.104 1.596.84.287 1.676.585 2.509.894.184.067 4.244 1.687 1.58.561 4.046 1.711 7.943 3.757 11.736 5.968 13.222 7.707 23.705 18.473 31.558 31.559 2.033 3.389 3.805 6.928 5.436 10.524.663 1.511.708 1.615.137.314.502 1.23.955 2.48 1.409 3.729.761 2.094 1.412 4.225 2.035 6.361 1.263 4.332 2.152 8.764 2.837 13.221-.192-1.461-.187-1.341.017.36.156 1.373.257 2.751.357 4.129.169 2.322.215 4.651.23 6.98.051 7.631 6.33 14 14 14 7.594 0 14.051-6.368 14-14-.33-49.765-31.627-93.213-77.89-110.706-17.842-6.746-36.492-6.933-55.251-6.933-6.33 0-14.497-1.076-18.943 4.518l-5.933 7.461-67.902 85.413h19.799l-43.596-54.388-25.645-31.993-5.369-6.698c-4.572-5.703-14.199-4.313-20.708-4.313-19.107 0-37.741.792-55.8 7.888-22.799 8.959-41.733 24.329-55.619 44.47-13.045 18.921-19.795 42.445-19.795 65.346V818.95c0 7.632 6.368 14 14 14H680.066c7.632 0 14-6.368 14-14v-81.036c0-7.632-6.368-14-14-14s-14 6.367-14 13.999z"></path></svg>