<svg xmlns="http://www.w3.org/2000/svg" viewBox="0 0 64 64" id="urban"><path d="M3,23V60a1,1,0,0,0,1,1H18V22H4A1,1,0,0,0,3,23ZM16,36V56a1,1,0,0,1-2,0V36a1,1,0,0,1,2,0ZM8,26.9a.9.9,0,0,1,.9-.9h5.2a.9.9,0,0,1,.9.9v4.2a.9.9,0,0,1-.9.9H8.9a.9.9,0,0,1-.9-.9Zm0,10a.9.9,0,0,1,.9-.9h2.2a.9.9,0,0,1,.9.9V55.1a.9.9,0,0,1-.9.9H8.9a.9.9,0,0,1-.9-.9ZM61,57v3a1,1,0,0,1-1,1H45V58H60A1,1,0,0,0,61,57ZM43,4.727v2.62L20,17.467V14.055a.9.9,0,0,1,.538-.824L41.738,3.9A.9.9,0,0,1,43,4.727ZM20,56H37V53.071A1.072,1.072,0,0,1,38.071,52H43V9.533L20,19.653Zm19-8.9a.9.9,0,0,1-.9.9H34.9a.9.9,0,0,1-.9-.9V38.9a.9.9,0,0,1,.9-.9h3.2a.9.9,0,0,1,.9.9Zm0-14a.9.9,0,0,1-.9.9H34.9a.9.9,0,0,1-.9-.9V24.9a.9.9,0,0,1,.9-.9h3.2a.9.9,0,0,1,.9.9ZM39,22H34a1,1,0,0,1,0-2h5a1,1,0,0,1,0,2Zm-5.983-6.26,6.262-2.755a1,1,0,0,1,.8,1.831l-6.262,2.755a1,1,0,1,1-.8-1.831ZM23.5,19.925l5.093-2.24a1,1,0,1,1,.806,1.831l-5.093,2.24a1,1,0,0,1-1.318-.512A1,1,0,0,1,23.5,19.925ZM28.1,34H24.9a.9.9,0,0,1-.9-.9V24.9a.9.9,0,0,1,.9-.9h3.2a.9.9,0,0,1,.9.9v8.2A.9.9,0,0,1,28.1,34Zm.9,4.9v8.2a.9.9,0,0,1-.9.9H24.9a.9.9,0,0,1-.9-.9V38.9a.9.9,0,0,1,.9-.9h3.2A.9.9,0,0,1,29,38.9ZM22,52H34a1,1,0,0,1,0,2H22a1,1,0,0,1,0-2Zm15,8h6v1H20V58H37ZM60.184,16.017,45,13.17V56H60a1,1,0,0,1,1,1V17A1,1,0,0,0,60.184,16.017ZM48,20.9a.9.9,0,0,1,.9-.9h6.2a.9.9,0,0,1,.9.9v6.2a.9.9,0,0,1-.9.9H48.9a.9.9,0,0,1-.9-.9Zm0,12a.9.9,0,0,1,.9-.9h6.2a.9.9,0,0,1,.9.9v6.2a.9.9,0,0,1-.9.9H48.9a.9.9,0,0,1-.9-.9ZM49,53a1,1,0,0,1-2,0V43a1,1,0,0,1,2,0Zm7,0H51a1,1,0,0,1,0-2h5a1,1,0,0,1,0,2Zm0-4H51a1,1,0,0,1,0-2h5a1,1,0,0,1,0,2Zm0-4H51a1,1,0,0,1,0-2h5a1,1,0,0,1,0,2Z"></path></svg>